<?xml version="1.0" standalone="no"?>
<!DOCTYPE svg PUBLIC "-//W3C//DTD SVG 20010904//EN"
 "http://www.w3.org/TR/2001/REC-SVG-20010904/DTD/svg10.dtd">
<svg version="1.0" xmlns="http://www.w3.org/2000/svg"
 width="128.000000pt" height="128.000000pt" viewBox="0 0 128.000000 128.000000"
 preserveAspectRatio="xMidYMid meet">
<metadata>
Created by potrace 1.11, written by Peter Selinger 2001-2013
</metadata>
<g transform="translate(0.000000,128.000000) scale(0.100000,-0.100000)"
fill="#000000" stroke="none">
<path d="M495 1261 c-39 -9 -77 -21 -84 -25 -8 -5 -17 -3 -22 5 -7 11 -9 11
-9 -2 0 -8 -22 -27 -50 -42 -51 -28 -67 -39 -130 -94 -20 -18 -41 -29 -45 -25
-5 4 -5 2 -2 -4 9 -15 -22 -56 -36 -48 -7 4 -9 4 -5 -1 8 -8 -49 -117 -64
-123 -4 -2 -6 -8 -3 -13 3 -5 0 -19 -6 -31 -7 -13 -14 -32 -15 -43 -1 -11 -7
-40 -13 -65 -16 -69 -13 -177 8 -258 11 -40 19 -75 20 -77 0 -3 17 -38 38 -78
25 -47 64 -98 112 -147 41 -41 74 -78 73 -82 -1 -4 4 -5 11 -2 7 2 23 -5 35
-16 12 -11 22 -18 22 -14 0 4 8 0 18 -8 9 -8 46 -23 82 -33 36 -10 70 -22 75
-25 6 -4 57 -8 115 -9 116 -2 245 26 317 70 53 32 137 92 141 101 2 5 9 5 14
2 6 -4 8 -3 5 2 -3 6 14 31 38 57 24 27 44 50 45 52 1 3 16 37 34 77 51 111
70 200 63 305 -7 92 -10 118 -20 143 -3 8 -7 24 -9 35 -2 11 -5 22 -8 25 -3 3
-14 25 -25 50 -11 24 -37 67 -57 94 -20 27 -34 54 -31 59 3 6 1 7 -4 4 -13 -8
-36 17 -25 28 4 5 2 5 -4 2 -6 -3 -27 9 -47 27 -20 18 -58 44 -84 58 -26 14
-47 30 -46 35 1 5 -8 9 -20 8 -12 -1 -30 2 -40 7 -10 5 -28 11 -40 14 -140 30
-218 31 -322 5z"/>
</g>
</svg>
