<?xml version="1.0" standalone="no"?>
<!DOCTYPE svg PUBLIC "-//W3C//DTD SVG 20010904//EN"
 "http://www.w3.org/TR/2001/REC-SVG-20010904/DTD/svg10.dtd">
<svg version="1.0" xmlns="http://www.w3.org/2000/svg"
 width="512.000000pt" height="512.000000pt" viewBox="0 0 512.000000 512.000000"
 preserveAspectRatio="xMidYMid meet">
<metadata>
Created by potrace 1.11, written by Peter Selinger 2001-2013
</metadata>
<g transform="translate(0.000000,512.000000) scale(0.100000,-0.100000)"
fill="#000000" stroke="none">
<path d="M2235 4865 c-149 -21 -286 -52 -415 -95 -722 -237 -1305 -839 -1514
-1567 -66 -230 -81 -345 -81 -648 0 -303 15 -418 81 -648 217 -753 842 -1380
1589 -1590 230 -64 399 -87 655 -87 376 0 690 68 1005 219 634 304 1111 889
1268 1556 47 199 61 323 61 550 0 227 -14 351 -61 550 -155 661 -624 1242
-1248 1546 -205 99 -379 156 -615 201 -141 26 -575 34 -725 13z m650 -129
c312 -56 584 -159 842 -319 548 -341 926 -928 1018 -1584 24 -167 17 -489 -13
-648 -106 -556 -408 -1052 -838 -1375 -292 -221 -622 -365 -989 -432 -161 -29
-526 -32 -680 -5 -384 68 -710 208 -1013 436 -446 337 -747 842 -849 1426 -12
74 -17 157 -17 320 0 234 10 323 59 515 117 462 386 891 738 1179 321 261 724
437 1137 495 137 20 477 15 605 -8z"/>
<path d="M1810 3783 c-355 -11 -543 -24 -602 -43 -208 -64 -377 -280 -407
-521 -29 -224 -38 -693 -21 -1040 13 -258 25 -355 55 -436 67 -178 224 -331
385 -377 87 -25 398 -37 1098 -43 631 -6 1257 6 1472 28 137 13 217 53 325
162 95 95 154 200 179 319 48 227 48 1219 0 1446 -40 186 -175 360 -340 439
-88 42 -146 48 -565 63 -257 9 -1334 11 -1579 3z m2085 -1718 c33 -32 35 -105
5 -135 -20 -20 -33 -20 -1343 -20 -1181 0 -1325 2 -1345 16 -18 13 -22 25 -22
74 0 49 4 61 22 74 20 14 164 16 1341 16 l1318 0 24 -25z m-457 -331 c18 -13
22 -25 22 -74 0 -98 82 -90 -912 -90 -855 0 -868 0 -888 20 -14 14 -20 33 -20
68 0 52 5 63 35 80 14 8 258 11 880 12 763 0 863 -2 883 -16z"/>
</g>
</svg>
