<svg version="1" xmlns="http://www.w3.org/2000/svg" width="682.667" height="682.667" viewBox="0 0 512.000000 512.000000"><path d="M237.8 13.7c.6.2 1.8.2 2.5 0 .6-.3.1-.5-1.3-.5-1.4 0-1.9.2-1.2.5zM271.8 13.7c.7.3 1.6.2 1.9-.1.4-.3-.2-.6-1.3-.5-1.1 0-1.4.3-.6.6zM228.8 14.7c.6.2 1.8.2 2.5 0 .6-.3.1-.5-1.3-.5-1.4 0-1.9.2-1.2.5zM280.8 14.7c.6.2 1.8.2 2.5 0 .6-.3.1-.5-1.3-.5-1.4 0-1.9.2-1.2.5zM206.5 119.6c-25.6.6-80.1 2.5-85.5 3-21.3 1.8-36.7 12.4-49.4 33.8-7.2 12-9 21.9-10.6 57.1-1.3 28-1.3 57 0 85 1.7 37 3.3 45.1 12.2 59.5 9.1 14.9 22.7 25.9 36.3 29.5 7.5 2 29.9 3.1 91 4.6 61.1 1.4 167.1-.3 192.9-3.2 12.3-1.4 21.9-5.9 31.7-14.8 7-6.4 15.5-18.5 18.8-26.8 5.2-13.2 7.1-37.7 7.1-91 0-43.2-1.5-71-4.6-83.2-4.5-18-18.4-36.2-34-44.3-11-5.8-13.4-6.1-57.9-7.8-27-1-125.2-2-148-1.4zm196.4 189.8c3 2.7 3 12.7.1 15.6-2 2-3.3 2-146.9 2H111.3l-2.7-2.1c-2.2-1.7-2.6-2.8-2.6-7.3 0-5.8 1.8-9.2 5.3-9.9 1.2-.2 66.8-.4 145.8-.3 139.8.1 143.7.2 145.8 2zm-50.1 37.2c1.9 1.3 2.2 2.4 2.2 7.9s-.3 6.6-2.2 7.9c-2 1.4-12.9 1.6-97.5 1.6-94 0-95.3 0-97.3-2-1.5-1.5-2-3.3-2-7.3 0-5.7.5-6.8 3.5-8.5 1.5-.8 27.9-1.1 96.5-1.2 84 0 94.8.2 96.8 1.6zM14.2 231c0 1.9.2 2.7.5 1.7.2-.9.2-2.5 0-3.5-.3-.9-.5-.1-.5 1.8zM497.3 239c0 3 .2 4.3.4 2.7.2-1.5.2-3.9 0-5.5-.2-1.5-.4-.2-.4 2.8zM497.3 273c0 3 .2 4.3.4 2.7.2-1.5.2-3.9 0-5.5-.2-1.5-.4-.2-.4 2.8zM14.2 281c0 1.9.2 2.7.5 1.7.2-.9.2-2.5 0-3.5-.3-.9-.5-.1-.5 1.8zM228.8 497.7c.6.2 1.8.2 2.5 0 .6-.3.1-.5-1.3-.5-1.4 0-1.9.2-1.2.5zM279.3 497.7c.9.2 2.3.2 3 0 .6-.3-.1-.5-1.8-.5-1.6 0-2.2.2-1.2.5zM238.8 498.7c.7.3 1.6.2 1.9-.1.4-.3-.2-.6-1.3-.5-1.1 0-1.4.3-.6.6zM270.8 498.7c.7.3 1.6.2 1.9-.1.4-.3-.2-.6-1.3-.5-1.1 0-1.4.3-.6.6z"/></svg>